<svg height="512" viewBox="0 0 512 512" width="512" xmlns="http://www.w3.org/2000/svg"><g id="Flat"><rect fill="#0e638b" height="48" rx="8" width="464" x="24" y="440"/><path d="m349.65685 37.65685 28.6863 28.6863a8 8 0 0 1 0 11.3137l-52.6863 52.6863a8 8 0 0 1 -11.3137 0l-97.37259-97.37259a24 24 0 0 0 -33.94112 0l-137.37259 137.37259a8 8 0 0 0 0 11.3137l28.6863 28.6863a8 8 0 0 0 11.3137 0l108.6863-108.6863a8 8 0 0 1 11.3137 0l97.37259 97.37259a24 24 0 0 0 33.94112 0l81.37259-81.37259a8 8 0 0 1 11.3137 0l28.6863 28.6863a8 8 0 0 0 13.65685-5.65686v-108.68629a8 8 0 0 0 -8-8h-108.68629a8 8 0 0 0 -5.65686 13.65685z" fill="#03999c"/><g fill="#537ec2"><rect height="160" rx="16" width="64" x="56" y="248"/><rect height="240" rx="16" width="64" x="168" y="168"/><rect height="168" rx="16" width="64" x="288" y="240"/><rect height="240" rx="16" width="64" x="400" y="168"/></g><circle cx="384" cy="384" fill="#f57a08" r="104"/><path d="m384 280v104h-104a104.11225 104.11225 0 0 1 104-104z" fill="#e34e03"/><path d="m448.93994 465.17993a103.83738 103.83738 0 0 1 -138.44994-7.66993l73.51-73.51z" fill="#b1cdb4"/><path d="m384 384-73.51 73.51a103.67617 103.67617 0 0 1 -30.49-73.51z" fill="#f3b73f"/></g></svg>